<?xml version="1.0" encoding="UTF-8" standalone="no"?>
<!-- Created with Inkscape (http://www.inkscape.org/) -->

<svg
   xmlns:dc="http://purl.org/dc/elements/1.1/"
   xmlns:cc="http://creativecommons.org/ns#"
   xmlns:rdf="http://www.w3.org/1999/02/22-rdf-syntax-ns#"
   xmlns:svg="http://www.w3.org/2000/svg"
   xmlns="http://www.w3.org/2000/svg"
   xmlns:sodipodi="http://sodipodi.sourceforge.net/DTD/sodipodi-0.dtd"
   xmlns:inkscape="http://www.inkscape.org/namespaces/inkscape"
   width="197.45073mm"
   height="187.74718mm"
   viewBox="0 0 197.45073 187.74718"
   version="1.1"
   id="svg8"
   inkscape:version="0.92.3 (2405546, 2018-03-11)"
   sodipodi:docname="Logo.svg">
  <defs
     id="defs2" />
  <sodipodi:namedview
     id="base"
     pagecolor="#ffffff"
     bordercolor="#666666"
     borderopacity="1.0"
     inkscape:pageopacity="0.0"
     inkscape:pageshadow="2"
     inkscape:zoom="0.35"
     inkscape:cx="441.97864"
     inkscape:cy="479.38255"
     inkscape:document-units="mm"
     inkscape:current-layer="layer1"
     showgrid="false"
     inkscape:window-width="1600"
     inkscape:window-height="838"
     inkscape:window-x="-8"
     inkscape:window-y="-8"
     inkscape:window-maximized="1" />
  <metadata
     id="metadata5">
    <rdf:RDF>
      <cc:Work
         rdf:about="">
        <dc:format>image/svg+xml</dc:format>
        <dc:type
           rdf:resource="http://purl.org/dc/dcmitype/StillImage" />
        <dc:title></dc:title>
      </cc:Work>
    </rdf:RDF>
  </metadata>
  <g
     inkscape:label="Layer 1"
     inkscape:groupmode="layer"
     id="layer1"
     transform="translate(192.46346,78.843826)">
    <path
       inkscape:connector-curvature="0"
       id="path984"
       d="m -82.033326,108.67542 c 0.1261,-0.1262 -0.202,-1.1892 -0.7293,-2.3624 -0.5273,-1.1731 -1.557,-3.6638 -2.2883,-5.5347 -1.3002,-3.326477 -1.3254,-3.493777 -1.1415,-7.559477 0.2093,-4.6248 1.257,-8.7302 4.2041,-16.4746 0.9166,-2.4086 1.8662,-5.7254 2.1101,-7.3705 1.1245,-7.5844 1.6213,-10.2148 2.1062,-11.1525 0.5597,-1.0824 5.1057,-4.8281 10.4363,-8.5992 1.8,-1.2733 3.956,-3.1146 4.7912,-4.0917 2.584,-3.023 5.7223,-8.6442 6.3695,-11.4089 1.7099,-7.3038 2.0793,-8.6197 2.8596,-10.1879 1.0326,-2.0753 1.9727,-2.6772 6.6613,-4.265399 3.4363,-1.164 3.9089,-1.228402 8.5254,-1.161902 5.3965,0.078 5.8038,0.2168 10.283,3.509201 2.4254,1.7828 3.4515,3.071 3.7613,4.7221 0.133,0.7088 0.3926,1.3819 0.5769,1.4958 0.4546,0.281 0.4236,-1.0675 -0.053,-2.3221 -0.5029,-1.3226 -0.2788,-1.5021 0.9061,-0.7258 0.5286,0.3464 1.1497,0.5132 1.3803,0.3707 0.6635,-0.4101 -0.589,-1.5396 -3.9754,-3.5851 -4.1867,-2.5288 -5.7954,-4.083701 -4.8205,-4.659199 0.1559,-0.092 1.6269,-0.277802 3.2689,-0.412702 1.6421,-0.134998 3.1193,-0.327999 3.2827,-0.428998 0.1635,-0.1011 1.1162,0.01 2.1172,0.2389 1.001,0.2325 2.8732,0.463198 4.1605,0.512599 1.9718,0.076 2.7729,0.340201 5.0846,1.678601 2.4449998,1.4155 5.5324998,2.522599 5.9291998,2.125999 0.08,-0.08 -0.4256,-0.3858 -1.1237,-0.6793 -0.6981,-0.2936 -2.7929998,-1.409099 -4.6551998,-2.479 -2.2501,-1.292699 -3.8155,-1.945299 -4.6665,-1.945299 -0.7044,0 -2.2148,-0.2716 -3.3566,-0.603501 -1.1417,-0.331899 -2.7412,-0.539999 -3.5544,-0.462399 -0.8733,0.083 -1.4786,-0.02199 -1.4786,-0.2574 0,-0.5076 0.9775,-1.971802 2.2076,-3.3069 0.5267,-0.571701 0.7876,-1.0394 0.5797,-1.0394 -0.4317,0 -1.8019,1.447398 -3.2626,3.446698 -0.7229,0.989402 -1.4491,1.480302 -2.6244,1.774002 -2.9316,0.7326 -7.3003,0.927799 -11.1097,0.4962 -3.0477,-0.345202 -4.1646,-0.3243 -6.0024,0.1123 -3.3227,0.7894 -3.6985,0.218 -1.5259,-2.3202 1.0881,-1.271202 1.8583,-1.714701 4.4034,-2.5356 4.2293,-1.3641998 10.1031,-4.6465018 14.273,-7.9759998 1.9152,-1.529202 4.0835,-2.97880096 4.8184,-3.22130196 0.9413,-0.3107 1.2179,-0.559498 0.9357,-0.841698 -0.7495,-0.74950104 -3.1759,0.398698 -6.6615,3.15229896 -1.871,1.4781 -4.0734,3.033501 -4.8943,3.4564 -0.8208,0.423 -2.3792,1.3579 -3.4631,2.077501 -2.005,1.331198 -4.7641,2.031198 -5.2036,1.320098 -0.2449,-0.396298 6.7154,-8.39009796 7.3053,-8.39009796 0.1772,0 1.317,-0.744702 2.533,-1.6549 3.5933,-2.68960104 7.9087,-4.64660204 12.154,-5.51180004 2.0805,-0.424 4.2872,-0.7708 4.9039,-0.7708 0.6166,0 2.4504,-0.332201 4.075,-0.738201 l 2.9538998,-0.7381 5.0199,0.9271 c 2.76099996,0.509899 5.8331,0.903901 6.8269,0.8754 l 1.807,-0.052 -2.2679,-0.268499 c -1.2473,-0.147601 -3.54350004,-0.6139 -5.1027,-1.036201 -1.5591,-0.422199 -3.3132,-0.879399 -3.898,-1.015799 -1.0596,-0.247401 -1.0557,-0.253701 1.2058,-1.9184992 2.2153,-1.630802 3.2736,-2.887702 2.8163,-3.345 -0.125,-0.125 -1.0882,0.546698 -2.1403,1.4927 -1.0522,0.945999 -2.5172,2.026798 -3.2557,2.401898 -1.8342,0.9317012 -5.7684998,1.9987022 -6.7921998,1.8422012 -0.8199,-0.125299 -0.8231,-0.1456 -0.1396,-0.884201 0.725,-0.7835002 2.3763,-3.3442992 2.3763,-3.6851012 0,-0.106799 -1.1235,0.907503 -2.4967,2.253901 -2.7308,2.6776022 -4.271,3.5101002 -6.4939,3.5101002 -2.1738,0 -5.1901,0.996501 -8.6798,2.867602 l -3.1183,1.672 0.01,-1.608301 c 0.019,-3.354999 0.6477,-4.871699 3.0155,-7.2780002 3.2966,-3.3503 4.2662,-5.736601 4.3723,-10.760901 0.046,-2.189099 0.01,-3.253499 -0.088,-2.3652 -0.095,0.888302 -0.2895,1.5425 -0.4332,1.453801 -0.1438,-0.089 -0.2857,0.970499 -0.31539,2.353699 -0.034,1.595001 -0.33101,3.137201 -0.81111,4.2159 -0.79549,1.7874 -4.31,5.5251 -4.8698,5.179102 -0.3953,-0.2443 -0.3794,-13.368203 0.019,-15.762401 0.1898,-1.140399 0.1623,-1.5141 -0.083,-1.133999 -0.64,0.990298 -1.1934,4.935699 -1.1934,8.508098 0,3.898101 -0.853,10.6733022 -1.7364,13.7925012 -1.066,3.7641 -2.6016,6.01580004 -6.8797,10.088301 -4.6208,4.398698 -4.5454,4.4093 -4.5854,-0.6389 -0.052,-6.496902 1.0089,-12.674002 3.2771,-19.0878012 1.3753,-3.888902 2.7796,-6.398101 5.6061,-10.0163 1.8238,-2.334701 3.8228,-6.3197 4.1714,-8.315499 0.1271,-0.727602 0.4998,-1.535502 0.8282,-1.795402 0.358,-0.2833 0.4169,-0.472501 0.1469,-0.472501 -0.2862,0 -0.4646,-0.723098 -0.4895,-1.984298 -0.035,-1.776801 -0.1095,-1.5816 -0.7096,1.865 -0.7608,4.369499 -1.8969,6.718901 -5.9847,12.3751 -2.4899,3.445301 -3.6039,5.607201 -4.7867,9.288899 -0.3674,1.143302 -0.7968,2.2201 -0.9543,2.392802 -0.1575,0.172598 -0.8167,-0.613101 -1.4649,-1.746002 -1.5535,-2.715199 -8.3611,-11.788899 -8.3611,-11.1443 0,0.2764 1.1888,2.1135 2.6419,4.0825 1.4531,1.9691 3.2784,4.7708 4.0562,6.226 1.3349,2.4975 1.4114,2.825901 1.3648,5.8586002 -0.027,1.767001 -0.2578,4.3184 -0.5125,5.669701 -0.2547,1.3512 -0.439,4.39459904 -0.4096,6.763001 l 0.053,4.3063 -1.8018,-1.656702 c -5.281,-4.85579996 -6.7133,-6.54809796 -7.3957,-8.738298 -0.8496,-2.726701 -1.6238,-3.368601 -1.251,-1.037201 0.4166,2.6055 1.9624,4.84760104 5.7226,8.3004 3.969,3.6444 4.5761,4.606999 3.9491,6.2615998 -0.4866,1.283999 -1.8163,2.809801 -2.4488,2.809801 -0.7788,0 -2.0617,-1.705002 -2.7063,-3.5967008 -0.4234,-1.2426 -1.3525,-2.5928 -2.8289,-4.1109 -3.2517,-3.3439 -3.434,-2.203601 -0.2851,1.783299 1.3576,1.718702 2.7913,4.8585998 3.2377,7.0906008 0.2444,1.2222 -0.4661,2.650501 -2.4282,4.881301 -0.8228,0.9355 -1.8639,2.423798 -2.3135,3.307298 -0.4496,0.8835 -0.9744,1.6064 -1.1662,1.6064 -0.8624,0 -3.1758,-1.7463 -3.9536,-2.9843 -1.1182,-1.780099 -2.3241,-5.085698 -2.6344,-7.2211 -0.3855,-2.652998 1.2691,-9.9653978 3.5554,-15.7135978 1.8276,-4.594802 2.5435,-6.071402 5.0684,-10.4534022 0.6893,-1.1963 0.9461,-2.051799 0.7764,-2.5864 -0.2249,-0.7087 -0.4063,-0.572 -1.6058,1.209201 -1.8779,2.7885 -7.4712,15.2126002 -8.5958,19.0932992 -1.4647,5.0545998 -1.3144,5.0715018 -4.0212,-0.450299 -1.4462,-2.950401 -2.6466,-4.94040096 -3.0215,-5.00949896 -0.4767,-0.088 -0.2485,0.6297 0.976,3.06959996 1.9486,3.8827 4.6318,10.9739988 4.8083,12.7078978 0.071,0.699101 -0.057,1.335902 -0.2846,1.4151 -0.2276,0.079 -2.1489,-1.9026 -4.2695,-4.403799 -3.6458,-4.3002988 -4.7902,-5.3054008 -4.5101,-3.9611008 0.2568,1.2328018 4.03,6.1118008 6.9836,9.0304008 2.1627,2.137 3.2213,3.496099 3.5497,4.557099 0.2573,0.8316 1.1109,2.5847 1.8969,3.8959 2.9447,4.9124 2.4793,7.043 -2.659,12.1727 -3.8119,3.8056 -7.2334,5.9177 -10.2397,6.3209 -1.2911,0.1732 -1.6198,0.044 -2.7401,-1.08 -1.3182,-1.3221 -1.6457,-2.1666 -4.6518,-11.9987 l -1.4292,-4.6744 -3.4982,-3.2481 c -1.9241,-1.7864 -3.9121,-4.020198 -4.417798,-4.963998 -0.851602,-1.589101 -2.316301,-6.008201 -2.134701,-6.440702 0.044,-0.103899 0.806101,-0.400899 1.694299,-0.6599 2.0647,-0.601999 6.4138,-3.1389978 8.0875,-4.7175998 0.7118,-0.671399 1.6735,-2.0749 2.1372,-3.1188 1.3805,-3.10849996 7.1206,-7.900599 15.9159,-13.287499 0.3844,-0.235501 0.5914,-0.541499 0.4599,-0.680001 -0.4988,-0.5257002 -8.9334,3.853802 -11.501,5.971702 -1.4196,1.170998 -2.8108,2.128998 -3.0916,2.128998 -1.1448,0 0.5998,-5.116999 2.9131,-8.5448002 0.9804,-1.452499 1.0532,-1.719998 0.5241,-1.923 -0.338,-0.129699 -0.889,-0.073 -1.2246,0.1269 -0.7043,0.4187 -4.6268,8.1110002 -5.5623,10.9079002 -1.3638,4.078002 -3.0086,6.4804 -5.231,7.640402 -1.8378,0.9593 -6.258699,2.356599 -6.258699,1.978099 0,-1.1112 2.9783,-7.52749896 4.0392,-8.70179896 1.484501,-1.64320004 1.626599,-2.61760004 0.381601,-2.61760004 -0.998601,0 -2.875002,1.824599 -3.887002,3.77979804 -0.924899,1.78679996 -1.0995,0.84400196 -0.570899,-3.08360004 0.5169,-3.8408 1.444299,-5.930299 3.295499,-7.424999 11.1319,-8.9879012 10.3733,-8.5520002 17.8582,-10.2607012 2.3947,-0.5467 4.1075,-0.732099 5.2917,-0.572899 2.8861,0.388199 10.2795,2.0453 12.82,2.873399 1.8902,0.6161 2.4888,0.6805 2.9293,0.314901 0.3045,-0.252801 0.5537,-0.5749 0.5537,-0.715901 0,-0.5368 -3.7384,-2.037498 -7.5554,-3.032998 -2.3458,-0.611802 -3.9729,-1.227601 -3.9729,-1.503702 0,-0.257101 1.1698,-1.621898 2.5994,-3.0329 1.4297,-1.410898 2.5353,-2.752299 2.4569,-2.980899 -0.078,-0.2286 -1.2482,0.521801 -2.5994,1.667399 -3.6757,3.1163 -5.4369,3.8065 -10.3129,4.041701 -3.2706,0.1577 -4.1858,0.087 -4.6302,-0.357399 -0.6553,-0.655302 -0.6471,-0.583602 -0.2011,-1.756802 0.6328,-1.664398 4.7621,-4.456898 8.3091,-5.619199 3.4579,-1.132999 5.612,-1.316699 7.5441,-0.643099 0.676,0.235598 1.8124,0.303299 2.6028,0.154998 l 1.4029,-0.263099 -1.047,-0.762701 c -0.8293,-0.6042 -0.9562,-0.872199 -0.6102,-1.289 0.2403,-0.289499 0.7136,-0.528 1.052,-0.53 0.9528,-0.01 4.2385,-1.6393 6.3538,-3.159001 2.1166,-1.520597 2.8493,-1.626198 5.5662,-0.802 1.3439,0.407702 3.4282,0.544701 7.5596,0.496801 3.1372,-0.036 4.9386,-0.1206 4.0031,-0.187198 -8.4268,-0.600602 -11.519,-0.950701 -12.3795,-1.401501 l -1.006,-0.527201 2.6295,-1.6955 c 3.2117,-2.071 7.0339,-4.0293 9.0356,-4.629399 1.7638,-0.528801 2.2327,-1.320501 0.7822,-1.320501 -1.4574,0 -5.8563,2.1389 -10.6025,5.155401 -5.426,3.4485 -5.4499,3.4607 -4.2458,2.164699 0.5684,-0.611798 1.2741,-1.912 1.5683,-2.889498 1,-3.322802 2.3568,-5.107702 5.3857,-7.085002 1.9545,-1.2759 3.364,-1.910501 4.5972,-2.069701 3.9774,-0.513599 4.5725,-0.644199 5.2399,-1.149799 0.6,-0.4546 0.6114,-0.5293 0.082,-0.5397 -0.3377,-0.01 -1.3371,0.2431 -2.2209,0.555 -0.8838,0.3118 -2.442,0.5669 -3.4626,0.5669 -1.0716,0 -2.2493,0.257899 -2.7873,0.610501 -1.3929,0.912699 -1.1354,0.4308 0.8637,-1.616501 2.3379,-2.3941 4.3444,-6.1409 4.169,-7.7849 l -0.1307,-1.2254 -0.4579,1.5446 c -0.6492,2.19 -2.8962,5.4563 -6.5601,9.5362 -1.7393,1.9367 -3.6726,4.233 -4.2963,5.102701 l -1.1339,1.581298 -0.22,-2.267799 -0.2199,-2.2679 -0.1256,1.8899 c -0.069,1.0394 -0.083,2.685799 -0.031,3.658601 0.086,1.605899 -0.049,1.924499 -1.4649,3.4604 -1.5253,1.6548 -3.5296,2.8974 -4.6734,2.8974 -0.331,0 -0.8476,-0.7189 -1.2232,-1.702301 -1.2027,-3.149398 -0.1689,-7.3295 3.1911,-12.902699 2.3337,-3.871001 2.486,-4.369301 1.7627,-5.768101 -0.671,-1.2976 -0.7623,-3.1605 -0.2058,-4.2003 0.2093,-0.3912 0.4635,-1.6131 0.5647,-2.7155 0.1012,-1.1024 0.2775,-2.5145 0.3918,-3.1382 0.1587,-0.8664 0.1168,-0.9896 -0.1776,-0.5224 -0.2119,0.3363 -0.5012,1.612 -0.6431,2.8348 -0.1418,1.2228 -0.5454,2.9037 -0.897,3.7352 l -0.6392,1.5119 -0.813,-1.5913 c -0.4472,-0.8753 -0.8111,-2.0659 -0.8087,-2.6459 0,-0.5799 0.6828,-3.6854 1.5119,-6.901 1.6684,-6.4702 1.6457,-6.3565 1.1668,-5.8518 -0.1874,0.1975 -1.1419,2.8944 -2.1213,5.993101 -2.1579,6.827899 -2.145,7.877999 0.1442,11.746899 0.859,1.4519 1.5615,2.9827 1.561,3.4018 -2.6e-4,0.419 -0.6946,1.7825 -1.5424,3.0298 -0.8478,1.247299 -2.1655,3.543501 -2.9284,5.102702 -1.463,2.990199 -1.3915,2.477098 -1.5664,11.250898 -0.01,0.263199 -0.5623,0.713401 -1.2379,1.0004 -1.6473,0.699701 -8.6533,2.5614 -8.8604,2.3543 -0.09,-0.09 0.5271,-1.074799 1.372,-2.1878 1.8746,-2.4691 3.5104,-6.294898 4.7787,-11.1764 0.5251,-2.020998 1.2858,-4.210299 1.6905,-4.864999 0.8358,-1.352401 1.0237,-4.094901 0.2632,-3.841701 -0.2598,0.087 -0.5315,0.4834 -0.6036,0.882 -0.3555,1.9637 -1.7123,1.2855 -3.0281,-1.5138 -0.6272,-1.3343 -0.7696,-2.5515 -0.8612,-7.3617 -0.06,-3.1697 -0.2243,-5.8339 -0.3642,-5.9203 -0.1399,-0.086 -0.3649,-0.746499 -0.5,-1.4667 -0.167,-0.8902 -0.7462,-1.7379 -1.8091,-2.6477 -2.0628,-1.7657 -2.4243,-1.3386 -0.3966,0.4686 2.0741,1.8486 2.4139,3.189301 2.574,10.1561 0.139,6.045 0.3929,7.1577 2.1678,9.5009 0.9048,1.1946 0.9228,1.321301 0.4301,3.0239 -0.2829,0.977302 -0.8738,3.052601 -1.3131,4.611801 -0.7334,2.602399 -2.5248,6.278801 -3.9564,8.119099 -0.5713,0.734402 -0.6,0.7273 -1.524,-0.377999 -0.518,-0.619602 -1.4339,-1.8161 -2.0353,-2.658999 l -1.0935,-1.532401 1.6681,-2.5927 c 1.7561,-2.729301 1.837,-3.1634 1.306,-7.0046 -0.2802,-2.027601 -0.2887,-2.039301 -0.3406,-0.472501 -0.033,0.997699 -0.2322,1.610799 -0.5256,1.617901 -0.2623,0.01 -0.1782,0.182898 0.1889,0.396798 0.9879,0.575302 0.8022,2.141101 -0.4932,4.159801 -1.9909,3.102501 -1.964,3.1106 -4.0754,-1.2402 -2.0959,-4.318699 -2.8856,-5.5436 -3.3041,-5.125 -0.1544,0.154302 -0.017,0.579299 0.304,0.9443 0.9278,1.0537 2.4067,4.2237 3.2573,6.982499 0.8938,2.8985 1.6519,4.504201 2.9386,6.223802 1.7486,2.3368 1.3851,3.2498 -2.9823,7.490299 -2.7725,2.691802 -4.1907,4.394001 -4.9275,5.914001 -1.1085,2.286899 -2.1511,3.502498 -2.1511,2.5082 0,-0.304001 0.5073,-2.017099 1.1275,-3.806802 2.2634,-6.532398 2.2805,-9.115499 0.1153,-17.466598 -0.6298,-2.429301 -0.9931,-4.877602 -1.0169,-6.852301 l -0.037,-3.0726 1.9453,-2.2387 c 2.2925,-2.6386 4.2975,-5.6983 4.2762,-6.5258 -0.01,-0.3434 -0.2494,-0.1557 -0.579,0.452 -0.7096,1.3079 -0.8495,1.3079 -0.6713,0 0.078,-0.5717 -0.1822,-0.1302 -0.5779,0.9811 -0.648,1.8194 -3.1228,4.9721 -3.903,4.9721 -0.4577,0 -0.3624,-2.2726 0.2578,-6.1462 0.4882,-3.049 0.7813,-5.5937 0.9147,-7.9419 0.021,-0.3685 0.7401,-1.431499 1.5981,-2.3624 1.7349,-1.882 1.6427,-2.23 -0.1825,-0.6889 l -1.1885,1.0034 -0.1932,-1.8539 c -0.1529,-1.468 -0.2469,-0.9885 -0.4516,2.3038 -0.1421,2.2868 -0.8817,7.3895 -1.6436,11.3393 -1.6128,8.3621 -1.5972,9.6508 0.2124,17.5682 0.7024,3.073001 1.1204,5.848101 1.0533,6.992602 l -0.1112,1.897599 -0.7235,-1.323001 c -0.3979,-0.727599 -1.2021,-3.193899 -1.7871,-5.4806 -1.474,-5.761901 -1.5246,-12.1853 -0.1304,-16.5509 0.517,-1.619 0.9401,-3.5226 0.9401,-4.2303 0,-2.1223 -2.5333,-9.813299 -4.5676,-13.8671 -1.0476,-2.0876 -1.990099,-3.7101 -2.094599,-3.6057 -0.1045,0.1044 0.432599,1.4261 1.193499,2.9369 2.2092,4.387 4.0289,10.3017 4.2373,13.7724 0.1589,2.648 0.057,3.3292 -0.8181,5.4807 -0.7947,1.9532 -1.002,3.0946 -1.0117,5.5681 -0.01,1.711302 -0.1441,3.192899 -0.3055,3.2926 -0.1613,0.100002 -0.873,-0.423199 -1.5816,-1.162101 -0.7086,-0.738899 -2.649,-2.132099 -4.312099,-3.096199 -1.6631,-0.964 -3.666199,-2.3327 -4.4513,-3.0416 -0.785005,-0.7089 -1.550405,-1.163 -1.700805,-1.0091 -0.3465,0.3544 2.015104,2.423 5.258705,4.606399 5.500299,3.702402 6.678299,5.286902 7.720599,10.384801 0.3136,1.533901 1.1754,4.297701 1.915,6.141701 1.6131,4.0215 1.5925,4.358699 -0.6645,10.844401 -1.5812,4.543798 -1.7368,4.8172 -3.6218,6.3617 -2.4725,2.025798 -3.3497,1.963499 -3.253,-0.231101 0.038,-0.8617 0.3497,-1.995201 0.692801,-2.518801 0.6551,-0.9998 0.449,-2.7099 -0.272802,-2.263698 -0.263398,0.1627 -0.341198,-0.163002 -0.226197,-0.946701 0.188399,-1.283599 -0.455501,-2.1609 -1.337702,-1.822302 -0.354301,0.135901 -0.665498,1.550303 -0.986599,4.483503 -0.6476,5.916699 -0.9032,6.724298 -2.675099,8.452299 l -1.540306,1.502199 -0.7038,-0.931098 c -1.4797,-1.957602 -0.9216,-6.293401 1.308206,-10.163302 1.164,-2.0202 1.298099,-3.411599 0.169299,-1.756799 -1.561005,2.288601 -3.401205,6.293099 -3.607305,7.849798 -0.1164,0.879801 -0.038,2.355901 0.17361,3.280201 0.212,0.924301 0.30029,1.818201 0.19629,1.986402 -0.10399,0.168299 -0.91629,-0.1202 -1.8051,-0.641101 -2.2852,-1.339199 -2.4329,-1.185799 -0.6848,0.7107 1.932,2.0958992 2.7985,3.7667012 2.8477,5.4908002 0.021,0.745799 -0.1843,3.9923 -0.45689,7.2146 -0.30491,3.6039 -0.39281,7.3743 -0.22851,9.7968988 l 0.2672,3.938302 -1.5156,-1.200402 c -2.2052,-1.746599 -3.7064,-3.575499 -4.29,-5.2262978 -0.7424,-2.1004 -0.6325,-8.60200096 0.1771,-10.473 0.8144,-1.881902 0.7974,-2.876801 -0.1099,-6.424202 -0.5578,-2.181 -0.7195,-3.9170002 -0.648,-6.9585002 0.094,-3.9888 0.1226,-4.106399 1.8355,-7.481199 0.9572,-1.885799 2.2031,-5.059299 2.7686,-7.0523 l 1.0284,-3.623601 1.9426,-0.766198 1.942706,-0.766202 -1.600696,-0.025 -1.60061,-0.025 0.22,-2.362401 c 0.1881,-2.0207 0.3922,-2.522101 1.4116,-3.467 0.6554,-0.6076 2.447805,-2.2714 3.983105,-3.6972 1.5352,-1.4259 2.6923,-2.691601 2.5712,-2.8126 -0.292399,-0.292399 -1.774301,0.889399 -4.984599,3.975399 -1.455206,1.398899 -3.450806,3.1907 -4.434606,3.981701 -1.94809,1.566601 -3.93369,4.048099 -5.89049,7.361899 -2.40161,4.0669 -4.41611,5.335701 -8.47181,5.335701 -1.1687,0 -1.142,-0.043 2.0975,-3.353101 2.8571,-2.919699 3.2812,-3.523801 3.2812,-4.673698 0,-0.7483 -0.32759,-1.737101 -0.75599,-2.281701 -0.41571,-0.5286 -0.75591,-1.487 -0.75591,-2.1298 0,-0.642901 -0.1701,-1.1688 -0.378,-1.1688 -0.5986,0 -0.4415,1.700599 0.3403,3.684199 0.9839,2.496 0.4925,3.5179 -2.9541,6.143101 -1.5011,1.143399 -3.55869,2.715699 -4.5725,3.494101 -1.01379,0.778298 -1.9315,1.2725 -2.0392,1.0981 -0.23,-0.372002 0.9761,-3.676801 2.2276,-6.104102 1.0763,-2.087398 1.39301,-3.023798 1.0225,-3.023798 -0.4469,0 -4.1969,8.151698 -4.7803,10.3915 -0.2905,1.115398 -0.6911,2.337699 -0.8903,2.716299 -0.1991,0.378601 -0.7318,2.0491 -1.1837,3.7122 -0.4518,1.663099 -1.0899,3.4358 -1.4178,3.9394 -0.78179,1.2002 -1.6174,4.3838992 -1.623,6.1836002 -0.01,1.570099 0.8148,3.8328 1.7715,4.89 0.3373,0.3727 0.5222,0.768599 0.411,0.879801 -0.1112,0.111199 -1.1557,-0.6692 -2.3211,-1.734302 -2.1027,-1.921798 -4.9335,-6.009399 -6.1066,-8.8178982 -0.336,-0.8046 -1.4506,-2.471801 -2.4768,-3.704902 -1.6668,-2.002798 -1.8658,-2.436 -1.8658,-4.061198 0,-1.197901 0.24,-2.127203 0.7025,-2.7207 0.3864,-0.4958 1.0075,-1.496801 1.3802,-2.224402 0.3728,-0.727599 1.815,-2.557899 3.2049,-4.067498 1.3899,-1.509501 3.1076,-3.780801 3.817,-5.0473 1.6783,-2.996502 3.2727,-4.870302 4.1442,-4.870302 1.2976,0 6.9561,-1.971199 9.8938,-3.446701 1.6065,-0.806799 3.2649,-1.466998 3.6853,-1.466998 0.4204,0 0.76431,-0.170101 0.76431,-0.377902 0,-0.627798 -0.82381,-0.4352 -3.40171,0.795102 -2.3059,1.1004 -8.896,3.7406 -9.33689,3.7406 -0.11031,0 0.41029,-0.676201 1.15689,-1.5025 1.3485,-1.4927 4.03,-6.353799 4.0136,-7.2761 0,-0.265001 -0.5983,0.612601 -1.3191,1.9503 -1.6221,3.0104 -2.7213,4.1926 -5.8538,6.295501 -2.105,1.412999 -2.7316,2.120799 -4.3747,4.941699 -1.7907,3.074099 -2.8806,4.336799 -3.3437,3.873699 -0.1073,-0.107299 -0.3281,-1.788499 -0.4906,-3.735898 -0.2094,-2.508703 -0.4507,-3.592201 -0.8279,-3.717301 -0.4454,-0.1476 -0.4944,0.495999 -0.2996,3.938299 0.2827,4.996701 -0.065,6.1878 -2.6268,9.0082 -1.0081,1.109602 -1.9179,2.0358 -2.0218,2.0583 -0.104,0.02199 -0.2002,-2.212999 -0.2138,-4.967499 -0.021,-4.1626 -0.1717,-5.454801 -0.8945,-7.6541 l -0.8696,-2.646 0.8433,-3.125502 c 0.9855,-3.652297 2.2768,-5.302998 7.6462,-9.774798 l 3.2988,-2.747401 2.7488,0.048 c 1.5118,0.026 3.2401,-0.1573 3.8406,-0.4076 1.3656,-0.5691 1.0849,-0.974 -0.308,-0.4444 -1.1368,0.4322 -4.4873,0.527801 -4.876,0.1391 -0.1372,-0.1372 0.4357,-0.8358 1.273,-1.5525 0.8373,-0.7167 1.8321,-1.9227 2.2107,-2.6799 0.8506,-1.7013 1.2889,-3.8336 0.788,-3.8336 -0.2027,0 -0.3691,0.4677 -0.3699,1.0394 0,1.9591 -2.465,4.9226 -5.63249,6.7789 l -1.67921,0.9841 -0.7358,-0.905 c -0.6395,-0.7865 -0.7102,-1.3176 -0.5407,-4.059 l 0.1949,-3.154 -1.3082,1.2642 c -0.7196,0.6953 -1.6511,1.817 -2.0701,2.4926 -1.159,1.8687 -1.5964,1.5623 -1.3384,-0.9376 0.1456,-1.4102 0.1001,-1.9708 -0.1303,-1.6064 -0.1946,0.3078 -0.3565,2.2004 -0.3596,4.205701 l -0.01,3.646099 -1.3585,1.192801 c -0.7472,0.655999 -1.5551,1.130101 -1.7954,1.053498 -0.81469,-0.259598 -1.8031,-4.195999 -2.10609,-8.387899 -0.29831,-4.1263 -0.3024,-4.1399 -0.35571,-1.1865 -0.052,2.8692 -0.081,2.963 -0.7452,2.3623 -1.0877,-0.9843 -1.2392,-0.7374 -0.40989,0.6682 1.1176,1.8942 2.67799,7.583799 2.87769,10.4928 0.13911,2.027301 0,2.977902 -0.7071,4.8137 -0.4843,1.258102 -1.04129,2.29 -1.2378,2.293101 -0.1965,0 -0.8197,-0.437501 -1.38469,-0.9789 -1.011,-0.968499 -1.02411,-1.041601 -0.81541,-4.539199 0.20971,-3.514903 0.19651,-3.586203 -1.1666,-6.344402 -1.7887,-3.6192 -4.9221,-6.7439 -9.81619,-9.7889 -2.0726,-1.2895 -3.94381,-2.6253 -4.1583,-2.9683 -0.21461,-0.3431 -0.5803,-0.5508 -0.8128,-0.4615 -0.2325,0.089 -1.22281,-0.2632 -2.20051,-0.7831 -0.9778,-0.5199 -1.7778,-0.7915 -1.7778,-0.6036 0,0.4464 1.7506,1.642 3.3224,2.269 0.6839,0.2729 1.4493,0.7703 1.7009,1.1055 0.2515,0.3351 0.62741,0.6093 0.8354,0.6093 0.7395,0 4.83501,2.6767 7.059,4.6136 4.07121,3.5456 5.9891,6.992099 6.09941,10.9605 0.079,2.852301 -0.52551,3.772501 -1.38601,2.1086 -0.31679,-0.612699 -1.1508,-1.802001 -1.8533,-2.642799 -0.8129,-0.973 -1.5245,-2.4419 -1.95709,-4.039902 -0.51691,-1.909798 -0.951,-2.712799 -1.8131,-3.353698 -1.7384,-1.292601 -4.0489,-3.739801 -4.72121,-5.000401 -0.3326,-0.6237 -0.6726,-0.9329 -0.7557,-0.6871 -0.1869,0.5529 0.7728,2.4609 1.5709,3.1232 0.91031,0.7555 0.7024,1.177901 -0.3777,0.767301 -0.5332,-0.202701 -1.1711,-0.362601 -1.4174,-0.355201 -0.6712,0.02 1.2036,1.012 3.193,1.6894 2.183,0.7434 2.8064,1.448 3.1225,3.529 0.3084,2.030799 1.2773,3.968901 3.037,6.075101 1.2363,1.479701 1.44821,2.3002 0.5941,2.3002 -0.1832,0 -1.66149,-0.901599 -3.285,-2.003502 -4.0077,-2.720199 -7.0007,-4.120999 -8.4909,-3.974099 -1.5807,0.1559 -1.9192,1.0639 -0.3966,1.0639 1.5401,0 4.9482,1.623401 8.5339,4.065 1.65321,1.125701 3.9136,2.448099 5.023,2.938801 4.41491,1.952501 1.3422,1.6598 -8.1881,-0.779801 -0.6507,-0.1666 -0.7872,-0.1299 -0.4382,0.1178 0.3532,0.250801 -0.3786,0.4914 -2.4165,0.794502 -3.93,0.584499 -7.6523,1.928299 -10.5243,3.799498 -2.1561,1.4048 -4.4967,2.268202 -7.5987,2.803099 -0.6236,0.107601 0.1418,0.117502 1.7009,0.02201 2.4774,-0.151599 3.3006,-0.411599 6.5289,-2.0617 2.5645,-1.310799 3.7423,-1.741199 3.8521,-1.407498 0.087,0.2643 0.2334,0.8207 0.3254,1.236498 0.092,0.415801 0.187,0.140502 0.2111,-0.611698 0.043,-1.342702 0.086,-1.379302 2.3585,-2.017001 4.0581,-1.1387 7.1594,-1.1542 12.39641,-0.062 5.166,1.0774 6.0461,1.587299 7.2531,4.202499 1.3892,3.010001 0.8085,3.4251 -2.86751,2.049701 -2.3425,-0.876401 -5.4286,-2.828499 -7.2792,-4.604401 -0.6726,-0.645398 -1.313,-1.083199 -1.4232,-0.973 -0.2761,0.276201 1.6099,2.125702 3.21291,3.150701 0.72759,0.465301 1.6631,1.2281 2.0788,1.695201 0.41579,0.467098 2.13199,1.486098 3.81379,2.2645 1.6817,0.778399 3.1435,1.651399 3.2483,1.940099 0.1049,0.2886 0.1568,3.0762 0.1153,6.1945 l -0.075,5.6696 -2.5805,0.1134 c -1.41919,0.062 -3.69759,-0.077 -5.0629,-0.309401 -1.36539,-0.2325 -3.86649,-0.564899 -5.55809,-0.7386 -1.6916,-0.1738 -3.4192,-0.499899 -3.8393,-0.724699 -0.42,-0.224801 -1.7574,-1.492301 -2.97201,-2.816699 -1.21459,-1.324401 -2.71859,-2.770201 -3.34219,-3.2127 -1.0959,-0.777701 -6.9627,-2.150401 -7.8754,-1.842702 -0.2421,0.082 0.1977,0.268701 0.9773,0.415801 1.529,0.288499 1.7405,0.628399 0.8504,1.3671 -0.3118,0.258799 -0.5669,0.651599 -0.5669,0.873 0,0.2213 0.4892,-0.066 1.0871,-0.639199 0.9443,-0.904602 1.2797,-1.007401 2.5513,-0.782002 1.1423,0.202401 2.0317,0.8329 4.0449,2.867101 1.4194,1.434201 2.51389,2.8081 2.43229,3.053099 -0.082,0.245001 -0.58489,0.562102 -1.11809,0.704702 -0.5333,0.1427 -2.0094,0.965398 -3.2801,1.8284 -1.2707,0.862899 -3.0378,1.880698 -3.9269,2.261799 -0.889,0.3811 -2.7701,1.566201 -4.1803,2.633501 -1.4102,1.067398 -2.7017,1.9407 -2.87,1.9407 -0.1682,0 -0.9627,0.521899 -1.7653,1.159698 -0.8027,0.6379002 -2.974,1.9421002 -4.8252,2.8982012 -2.7578,1.4243 -3.5618,2.047401 -4.4512,3.449899 -1.2317,1.942201 -1.3176,2.319602 -0.5282,2.319602 0.3065,0 0.8016,-0.467801 1.1002,-1.0395 0.8315,-1.5919 2.4777,-2.964101 4.7682,-3.974502 1.1433,-0.504499 3.9925,-2.2069 6.3315,-3.7832982 3.9387,-2.654602 4.2354,-2.791402 4.0183,-1.853602 -0.3088,1.333902 -0.8527,2.1441012 -2.9631,4.4143002 -2.2069,2.373802 -2.7106,3.212701 -1.9291,3.212701 0.3138,0 0.8134,-0.467699 1.1101,-1.0394 0.2968,-0.571699 1.3864,-1.839701 2.4213,-2.817799 1.3801,-1.304301 1.9495,-2.1607022 2.1362,-3.2128012 0.433,-2.4417 0.5776,-2.669501 2.0759,-3.268999 0.8004,-0.320201 2.7718,-1.441701 4.3809,-2.4922 3.1878,-2.081001 3.68929,-2.185601 6.4539,-1.347002 1.02049,0.309602 2.7187,0.564801 3.77389,0.567002 1.0707,0 3.13191,0.427998 4.66411,0.963398 1.51009,0.527601 4.37789,1.204302 6.37279,1.503701 3.35101,0.5031 3.7367,0.6516 5.0687,1.9523 0.79291,0.774301 1.44171,1.543399 1.44171,1.708999 0,0.165701 -0.6736,0.3013 -1.497,0.3013 -1.08331,0 -2.61851,-0.585499 -5.5555,-2.1189 -3.78371,-1.9754 -4.2007,-2.107999 -6.1571,-1.958099 -1.59501,0.1221 -2.60461,0.4875 -4.2083,1.522899 -3.6958,2.3861 -6.6524,2.901601 -11.4973,2.0046 -0.6236,-0.115499 -0.1261,0.155101 1.1055,0.6013 2.1941,0.7948 2.295,0.7981 4.9756,0.166201 1.5049,-0.354799 3.984,-1.251101 5.50909,-1.9919 3.53591,-1.7174 5.2163,-1.7677 8.127,-0.2433 1.1894,0.6229 2.2226,1.312801 2.29601,1.533001 0.2061,0.618199 -3.52691,1.365499 -6.98821,1.399 -2.95039,0.028 -3.9262,0.2989 -2.45729,0.680998 0.98119,0.2551012 6.3488,-0.03 9.21089,-0.489699 2.13121,-0.342199 2.71901,-0.306099 3.9687,0.244099 0.80681,0.3553012 2.13091,0.7496022 2.94231,0.8763002 1.38599,0.2164 1.5234,0.3595 2.2714,2.366301 0.4379,1.174801 1.3677,2.931901 2.06629,3.9046 0.70031,0.975201 1.12261,1.906701 0.9413,2.0766 -0.3175,0.29740004 -4.95909,1.58270104 -8.45519,2.341301 -0.9517,0.206499 -3.9484,0.2707 -6.8036,0.145698 -5.7579,-0.252 -8.1316,0.168802 -10.30581,1.827101 -1.799,1.372201 -5.36169,2.522199 -7.63309,2.464002 -1.0476,-0.027 -2.3836,0.139998 -2.9688,0.370898 -0.5853,0.230902 -2.1068,0.419901 -3.3812,0.419901 -1.9636,0 -2.4692,-0.145801 -3.3147,-0.955899 -0.8217,-0.787303 -1.1587,-0.891501 -1.9106,-0.590902 -0.5021,0.200699 -0.724,0.3757 -0.4931,0.3889 0.2308,0.01299 1.0282,0.436801 1.7718,0.941501 0.7437,0.504698 1.821,0.9724 2.394,1.0394 0.9729,0.1138 0.8931,0.212598 -1.2048,1.490099 -3.31,2.0156008 -4.6993,2.3630998 -8.2605,2.0661998 -1.6818,-0.140099 -3.483,-0.354399 -4.0027,-0.475999 -0.7299,-0.170801 -0.8473,-0.1168 -0.5162,0.237498 0.2358,0.252201 1.4839,0.554302 2.7735,0.671201 1.4671,0.133101 2.4186,0.405201 2.5422,0.727001 0.3455,0.900599 -1.025,2.444699 -2.847,3.207599 -3.3716,1.4117 -4.313,1.870001 -4.1588,2.0242 0.2586,0.258702 5.2701,-1.6764 6.37,-2.459598 0.5655,-0.402702 1.2296,-1.218401 1.4758,-1.812801 0.3869,-0.934202 0.7568,-1.138201 2.7282,-1.504802 1.2543,-0.233299 3.0739,-0.898599 4.0435,-1.4784998 3.8518,-2.303698 8.7555,-3.543998 8.7555,-2.214499 0,0.299501 -0.1701,0.649801 -0.378,0.778201 -0.2079,0.1285 -0.378,1.079399 -0.378,2.1130998 0,1.321901 -0.1682,1.944 -0.5669,2.097 -0.8001,0.306999 -0.7097,0.918499 0.095,0.639001 1.0318,-0.358802 1.6064,-1.292802 1.6064,-2.611602 0,-0.6648 0.2976,-1.5510978 0.6614,-1.9694998 0.7346,-0.844799 3.4495,-1.773899 6.32229,-2.163598 1.0345,-0.140402 2.56531,-0.609201 3.40181,-1.041901 1.3447,-0.6957 2.2645,-0.795401 7.9463,-0.8612 3.5341,-0.041 8.021,-0.2047 9.9709,-0.363802 2.9474,-0.240599 3.5164,-0.2008 3.37369,0.235702 -0.1641,0.5018 -2.45849,2.486599 -6.541,5.6584998 -1.0394,0.807699 -2.99549,2.3342 -4.34669,3.3923 -3.00021,2.3495 -4.31671,3.0373 -7.82381,4.087598 -3.13509,0.938901 -3.87279,1.5704 -1.53119,1.310701 3.3674,-0.373499 7.6582,-1.949699 9.3885,-3.448799 1.54899,-1.342001 5.5374,-4.505801 7.18829,-5.7021008 0.44921,-0.325499 0.71571,-0.365599 0.71571,-0.107799 0,0.2259988 -2.0313,2.4959988 -4.51401,5.0444998 -4.71419,4.839298 -5.98689,6.780701 -1.67379,2.553201 l 2.48509,-2.435702 -0.1572,2.362401 c -0.1148,1.7262 -0.029,2.362298 0.31721,2.362298 0.76419,0 0.99669,-0.707398 0.9764,-2.970998 -0.019,-2.112801 0,-2.141 2.0896,-4.0196 1.1598,-1.040501 2.9747,-2.7454018 4.033,-3.7887008 2.1045,-2.0745 3.9223,-2.827801 6.8237,-2.827801 2.0341,0 5.3541,0.872202 7.5574,1.985301 2.6936,1.3609 8.4985,5.9782998 10.7053,8.5153998 4.7401,5.449502 6.8491,7.439592 10.2888,9.708302 1.974897,1.3027 3.889398,2.70329 4.254396,3.1126 1.943701,2.17959 5.086598,10.17479 4.3063,10.955 -0.213799,0.21379 -4.326998,-0.6685 -10.101596,-2.1669 -1.42621,-0.3701 -4.8879,-2.55081 -7.2168,-4.5461 -1.187,-1.017 -1.538,-1.1381 -2.4332,-0.83981 -0.5753,0.19181 -1.1026,0.51851 -1.17181,0.72601 -0.069,0.2074 0.9833,1.4718 2.33871,2.8096 1.3555,1.3379 2.4645,2.65 2.4645,2.9159 0,0.26579 -0.4363,0.6492 -0.9696,0.8519 -2.9203,1.1103 -6.7418,-0.45661 -5.9767,-2.4506 0.2878,-0.74971 -0.5256,-3.16811 -1.5307,-4.5513 -0.6673,-0.9182 -0.774,-1.42151 -0.5613,-2.6458 0.1606,-0.9248 0.095,-1.8055 -0.1687,-2.2679 -0.3839,-0.6727 -0.4446,-0.5895 -0.5512,0.7559 -0.1887,2.3834 -0.6241,2.435 -2.81251,0.33309 -2.69399,-2.5874 -6.76349,-5.88219 -6.98809,-5.65769 -0.1007,0.1008 0.3042,0.62799 0.89989,1.1717 l 1.08301,0.98849 -1.9753,-0.1568 c -1.2411,-0.099 -2.92701,-0.6344 -4.5357,-1.44159 -3.105,-1.55801 -3.543,-1.7103 -2.5604,-0.8904 1.6605,1.3857 6.7632,3.5744 8.3332,3.5744 1.9088,0 3.4514,1.05049 7.0395,4.7937 2.7231,2.84079 3.4473,4.60659 2.6273,6.40609 -0.41771,0.91691 -0.44951,0.9232 -1.5064,0.29881 -0.5939,-0.3507 -2.847,-1.90541 -5.0069,-3.4547 -4.287,-3.0751 -5.55281,-3.7347 -6.10571,-3.1818 -0.22059,0.22059 -0.08,0.44139 0.37131,0.5848 0.3991,0.12669 1.2932,0.649 1.9868,1.1607 1.3035,0.9617 1.2198,1.12409 -0.7466,1.44889 -0.5253,0.087 -0.1851,0.17891 0.7664,0.20751 2.0536,0.062 2.6925,0.4941 11.2344,7.6021 0.4677,0.38919 0.8504,0.9245 0.8504,1.1895 0,0.2649 -0.8684,1.2971 -1.9298,2.2936 -2.2236,2.0876 -4.35751,2.8804 -10.5332,3.913 -4.7286,0.7907 -10.0773,0.5984 -15.6433,-0.5624 -2.0498,-0.4275 -4.6011,-0.7781 -5.66971,-0.7791 -2.57929,0 -4.02669,-0.9394 -7.281,-4.7125 -6.7378,-7.81191 -10.66969,-11.17441 -16.20639,-13.85951 -1.6631,-0.80659 -3.3983,-1.88999 -3.8561,-2.4076 -0.8982,-1.0156 -1.6294,-1.22759 -1.6165,-0.46859 0.011,0.62339 2.1712,2.12539 5.8262,4.0503 1.6319,0.8595 3.7308,2.0881 4.6642,2.7303 2.52,1.73389 6.62339,5.9729 8.21629,8.4881 0.7708,1.21699 1.75241,2.5954 2.1815,3.0631 0.42911,0.46779 0.6379,0.8504 0.46411,0.8504 -0.1738,0 -2.942,-1.0436 -6.1514,-2.3192 -5.7671,-2.2921 -5.8693,-2.31691 -8.7268,-2.112 -1.5902,0.11399 -3.3166,0.39149 -3.8363,0.6165 -0.73,0.3161 -0.2122,0.3581 2.2769,0.1845 1.9766,-0.1378 3.8757,-0.055 4.9137,0.2145 0.9305,0.2416 5.09359,2.1322 9.25139,4.2014 5.61371,2.7938 8.1432,3.8503 9.8274,4.1047 1.24731,0.1883 3.03321,0.599 3.96871,0.9125 0.93549,0.3136 2.1807,0.6733 2.76719,0.7993 0.59851,0.12869 1.00031,0.4304 0.91581,0.6878 -0.2746,0.8367 -2.0782,0.7189 -3.5625,-0.2326 -1.2178,-0.78081 -2.0637,-0.9582 -5.4122,-1.1353 -3.6683,-0.194 -3.9979,-0.061 -1.7009,0.6864 l 0.75599,0.24589 -0.75599,0.44231 c -0.45591,0.2667 -3.0036,0.4915 -6.4189,0.56639 -3.1147,0.068 -5.7369,0.19801 -5.8271,0.28831 -0.3031,0.303 10.7143,0.1228 12.435,-0.2034 0.9355,-0.1774 2.3154,-0.4408 3.06639,-0.5855 1.17941,-0.2271 1.5382,-0.1087 2.63201,0.8685 l 1.2664,1.1316 -1.2926,0.78599 c -2.0077,1.22101 -8.94741,2.70261 -12.6586,2.70261 -3.1819,0 -5.9009,0.6241 -7.6929,1.7656 -1.3937,0.8879 -0.7617,0.93619 1.5619,0.11949 1.59299,-0.5598 3.12629,-0.75259 6.02089,-0.75699 2.1361,0 4.8617,-0.23611 6.05711,-0.51741 1.1953,-0.28129 2.1734,-0.45349 2.1734,-0.38279 0,0.071 -1.00961,2.1289 -2.24341,4.5736 -1.2339,2.4447 -2.18069,4.5076 -2.10399,4.5843 0.3312,0.3312 1.009,-0.537 3.1895,-4.0853 2.5588,-4.1639 3.27739,-4.7447 8.3469,-6.7468 1.5633,-0.61741 3.7588,-1.6927 4.87899,-2.3894 l 2.03661,-1.2669 6.46029,-0.2154 c 5.3535,-0.1784 6.78691,-0.3503 8.3663,-1.003 2.51941,-1.0412 5.38891,-2.7522 7.76341,-4.6291 4.0048,-3.1656 9.5056,-5.57161 11.8634,-5.189 1.7416,0.2826 6.633996,2.3725 8.595297,3.6716 0.9091,0.6022 2.071197,1.8252 2.582397,2.718 0.8571,1.4967 0.9291,2.0056 0.9256,6.5367 0,4.8728 -0.018,4.9547 -1.7444,9.8274 -0.957298,2.7025 -2.459896,6.7738 -3.339197,9.0473 -1.7825,4.6094 -2.9489,9.371 -4.3576,17.789 -1.152297,6.88558 -2.147697,15.275877 -1.866397,15.731077 0.2279,0.3687 19.175694,0.4692 19.541294,0.1036 z M -119.89103,2.7641432 c -1.4207,-0.707901 -2.6658,-2.93330096 -2.6829,-4.795301 -0.016,-1.781799 -0.7538,-4.048299 -1.7442,-5.360998 -1.0476,-1.388401 -1.1409,-2.7660022 -0.3409,-5.0334022 0.8665,-2.456 0.6347,-2.701898 -0.3997,-0.424 -1.1776,2.5931 -1.1643,4.0473002 0.059,6.4044012 0.7073,1.363401 0.8824,2.07 0.6262,2.5278 -0.3039,0.542899 -0.5326,0.396299 -1.5707,-1.007001 -1.1483,-1.552199 -1.2066,-1.788099 -1.0596,-4.288398 0.3472,-5.9104012 2.3631,-12.4980022 4.3841,-14.3270002 0.4873,-0.441002 2.0346,-0.864002 4.4564,-1.218301 5.1454,-0.752699 5.959,-1.081801 7.6634,-3.1003 1.7199,-2.036799 6.3379,-4.8416 5.9581,-3.618701 -0.753,2.4247 -2.2792,5.968302 -3.4842,8.090202 -2.4078,4.2398 -2.7369,5.4805 -2.6247,9.894999 0.055,2.1722 0.3093,5.0113002 0.5647,6.3091002 0.3598,1.8288 0.3637,2.695001 0.018,3.850101 -0.2456,0.8197 -0.5813,1.4904 -0.746,1.4904 -0.5652,0 -9.4976,-9.3810002 -9.4976,-9.9746012 0,-0.326401 -0.2732,-1.276101 -0.607,-2.110499 -0.6628,-1.6564 -1.4292,-1.715802 -1.0497,-0.081 0.5895,2.538802 1.8168,4.4377012 4.9325,7.6317032 4.1569,4.261199 4.4012,4.721098 4.2192,7.9429 -0.2061,3.646099 -0.5223,3.899599 -3.4391,2.7578 -1.2953,-0.507101 -2.9309,-1.2089 -3.6347,-1.559502 z m 12.5807,-36.6399002 c 0.5057,-0.987401 1.71281,-2.560701 2.68241,-3.496201 l 1.76299,-1.700898 -0.251,1.889897 c -0.39339,2.962402 -0.5132,3.170402 -2.3884,4.146902 -2.60729,1.357699 -2.869,1.235999 -1.806,-0.8397 z m -35.8291,-14.677401 c -0.3697,-0.9634 -0.3036,-1.119999 1.2816,-3.038199 0.831,-1.005701 1.6196,-2.427501 1.7524,-3.159501 0.2877,-1.5859 1.635,-4.3705 2.7487,-5.6813 l 0.7999,-0.9413 -0.046,2.8348 c -0.025,1.5592 0.072,3.353 0.2164,3.9864 0.2466,1.0834 0.076,1.3124 -2.8878,3.872401 -1.73249,1.496398 -3.2593,2.721599 -3.393,2.7227 -0.1337,0 -0.3463,-0.2672 -0.47249,-0.596001 z"
       style="opacity:1;fill:#e4e4e4;fill-opacity:1;stroke:none;stroke-width:0.37797621;stroke-miterlimit:4;stroke-dasharray:none;stroke-dashoffset:0;stroke-opacity:0.47570172" />
  </g>
</svg>
